<?xml version="1.0" encoding="UTF-8"?>
<!DOCTYPE svg PUBLIC "-//W3C//DTD SVG 1.1//EN" "http://www.w3.org/Graphics/SVG/1.1/DTD/svg11.dtd">
<svg version="1.1" xmlns="http://www.w3.org/2000/svg" xmlns:xlink="http://www.w3.org/1999/xlink" x="0" y="0" width="910" height="892" viewBox="0, 0, 910, 892">
  <defs>
    <clipPath id="Clip_1">
      <path d="M0.06,0.261 L909.858,0.261 L909.858,892 L0.06,892 z"/>
    </clipPath>
  </defs>
  <g id="Layer_1">
    <g clip-path="url(#Clip_1)">
      <path d="M710.126,487.308 C703.122,489.223 696.131,491.189 689.11,493.042 C674.487,496.901 666.913,509.966 670.994,524.556 C674.348,536.547 677.669,548.551 681.325,560.45 C682.379,563.881 681.473,565.036 678.282,565.863 C665.91,569.072 653.543,572.315 641.257,575.836 C628.01,579.634 620.767,592.275 624.072,605.266 C627.41,618.381 639.646,626.224 653.051,623.075 C667.267,619.736 681.309,615.657 695.435,611.931 C697.028,611.51 698.671,611.28 700.29,610.962 C700.622,611.332 701.101,611.71 701.063,612.2 C700.348,621.432 699.548,630.65 695.114,639.059 C687.526,636.684 679.997,634.095 672.336,631.987 C662.301,629.226 653.384,631.635 646.689,639.652 C639.862,647.827 639.114,657.217 643.714,666.729 C646.744,672.994 652.07,676.888 658.699,679.059 C664.687,681.019 670.62,683.149 676.577,685.204 C677.484,687.226 676.176,688.7 675.268,690.227 C662.932,710.969 645.665,726.117 623.532,735.717 C622.221,736.286 620.866,737.273 619.393,736.009 C618.105,732.13 616.816,728.251 615.272,723.602 C607.295,731.222 598.079,735.753 589.934,741.841 C587.653,741.423 587.473,739.304 586.808,737.731 C581.81,725.916 576.733,714.14 571.142,702.591 C570.851,701.991 570.537,701.398 570.323,700.768 C569.953,699.675 569.324,698.474 570.22,697.457 C571.215,696.327 572.399,697.197 573.418,697.595 C577.204,699.075 580.937,700.197 585.033,698.544 C589.574,696.71 593.029,693.761 595.155,689.373 C599.105,681.219 600.045,672.569 599.406,663.617 C598.618,652.593 596.614,641.829 593.191,631.32 C592.052,627.822 590.488,624.52 588.975,621.179 C586.919,616.638 583.729,613.506 578.923,612.157 C575.237,611.121 572.838,608.89 571.803,605.179 C570.331,599.897 567.145,595.657 563.564,591.642 C559.807,587.43 559.728,586.326 563.595,582.466 C581.129,564.967 594.845,544.834 605.213,522.39 C614.931,501.355 621.057,479.281 624.025,456.321 C624.836,450.051 625.791,443.787 626.033,437.461 C626.162,434.087 628.27,433.026 631.034,432.203 C639.221,429.762 647.054,426.706 653.446,420.627 C663.069,411.475 666.705,399.89 666.547,387.192 C666.409,376.176 664.104,365.402 659.755,355.117 C656.807,348.146 652.292,342.464 646.407,337.955 C639.867,332.944 632.235,331.372 624.161,332.81 C615.685,334.319 616.09,334.67 613.036,325.955 C599.655,287.767 581.607,252.09 555.827,220.651 C535.114,195.392 510.693,174.55 481.966,158.784 C469.052,151.697 455.58,146.054 441.637,141.443 C438.536,140.417 435.729,139.293 434.766,135.66 C433.947,132.567 431.597,131.034 428.501,130.773 C425.28,130.501 423.097,132.32 421.595,134.885 C419.321,138.769 417.723,143 415.867,147.089 C403.399,174.568 387.187,199.718 368.433,223.253 C334.738,265.539 293.149,298.384 246.378,325.043 C218.551,340.903 190.119,355.478 160.247,367.13 C140.634,374.781 120.628,380.985 99.693,383.88 C93.707,384.708 87.714,384.19 81.727,384.37 C79.896,384.425 78.053,384.269 76.234,384.515 C72.078,385.077 69.175,388.068 69.213,391.669 C69.251,395.259 72.174,398.151 76.413,398.64 C79.064,398.946 81.742,398.773 84.406,398.796 C87.572,398.825 89.196,400.218 89.784,403.437 C90.57,407.74 90.718,412.039 90.663,416.374 C90.578,423.038 90.881,429.667 91.546,436.314 C92.1,441.841 91.006,442.914 85.779,444.568 C69.516,449.714 61.934,460.451 61.589,477.686 C61.351,489.58 63.614,500.843 68.049,511.785 C76.262,532.048 94.496,542.522 115.998,539.001 C120.073,538.334 122.49,539.311 124.447,543.03 C132.772,558.844 142.483,573.76 153.862,587.581 C182.724,622.638 219.101,646.043 262.848,658.044 C267.667,659.365 272.498,660.703 277.417,661.581 C281.424,662.296 283.415,664.183 283.75,668.493 C285.323,688.732 287.026,708.957 290.624,728.98 C294.326,749.577 299.923,769.586 308.668,788.619 C311.867,795.581 316.174,801.957 320.729,808.15 C322.395,810.416 324.833,812.722 322.953,816.092 C314.661,814.386 306.611,812.092 300,806.456 C299.679,806.831 299.335,807.045 299.333,807.263 C299.223,818.532 296.686,821.235 285.579,823.271 C276.051,825.017 266.802,822.991 257.454,822.034 C253.88,815.178 247.957,814.265 240.799,814.217 C224.139,814.106 208.426,809.615 193.734,801.712 C193.471,799.416 191.501,799.526 189.936,799.061 C189.031,798.814 188.235,798.384 187.585,797.699 C185.797,795.411 183.258,794.092 180.904,792.527 C164.977,780.617 155.37,763.703 145.528,747.126 C113.659,693.45 92.461,635.301 74.627,575.797 C63.386,538.288 52.903,500.565 45.058,462.177 C40.155,438.185 36.66,413.991 34.871,389.519 C33.495,370.696 33.571,351.864 34.252,333.101 C35.221,306.413 39.831,280.153 47.306,254.442 C50.614,243.064 54.565,231.934 59.141,221.015 C62.068,214.032 63.026,213.48 69.9,216.034 C89.51,223.318 109.683,227.005 130.64,225.728 C144.894,224.859 158.064,220.634 170.591,212.299 C164.323,212.466 158.697,212.558 153.078,212.398 C147.216,212.23 141.487,211.013 135.903,209.328 C113.723,202.635 100.591,187.122 93.695,165.629 C92.484,161.854 94.163,158.879 96.287,155.931 C103.99,145.242 112.313,135.044 121.045,125.201 C142.588,100.917 166.762,79.567 193.796,61.58 C225.335,40.597 259.443,25.59 296.798,18.391 C298.608,18.042 300.408,17.8 302.241,17.733 C305.609,17.155 309.026,16.91 312.37,16.175 C321.844,15.63 331.29,15.558 340.781,16.376 C349.391,17.118 358.021,17.611 366.63,18.461 C370.728,18.866 374.62,16.673 378.891,16.673 C400.385,16.675 421.319,20.247 441.885,26.162 C484.156,38.322 521.669,59.334 555.141,87.689 C581.231,109.79 601.381,136.893 619.402,165.612 C659.692,229.819 684.145,300.041 697.888,374.284 C702.377,398.533 705.204,422.983 707.495,447.507 C708.732,460.747 708.113,474.115 710.126,487.308" fill="#DCBF5C"/>
      <path d="M515.685,763.994 C510.855,772.846 506.042,781.707 500.461,790.308 C502.106,781.524 503.75,772.739 505.395,763.954 C508.191,760.809 511.571,760.496 515.306,761.914 C516.226,762.463 516.141,763.159 515.685,763.994 z M655.459,345.164 C649.562,336.228 640.806,331.546 629.8,330.952 C625.186,330.702 619.798,334.809 616.503,331.277 C613.492,328.049 613.014,322.458 611.424,317.907 C611.315,317.593 611.262,317.258 611.144,316.947 C594.358,272.537 571.392,232.01 537.239,198.393 C509.809,171.395 477.893,151.885 441.358,139.839 C439.518,139.232 436.749,139.627 436.323,136.612 C435.666,131.956 432.783,129.425 428.286,129.2 C423.384,128.954 421.019,132.265 419.235,136.408 C391.903,199.888 349.656,251.554 294.239,292.425 C256.698,320.112 215.923,342.386 172.974,360.465 C142.088,373.467 110.727,385.229 76.186,383.174 C71.477,382.894 67.883,386.841 67.747,391.33 C67.618,395.536 70.779,399.313 75.295,399.879 C78.257,400.25 81.289,400.277 84.277,400.155 C87.267,400.033 88.578,400.669 88.82,404.19 C89.587,415.316 88.79,426.519 90.433,437.58 C90.974,441.219 89.608,442.386 86.179,443.193 C72.797,446.343 64.145,454.636 61.333,468.222 C58.34,482.688 60.897,496.704 66.012,510.319 C74.172,532.034 92.855,544.415 117.286,540.044 C120.543,539.461 121.881,540.594 123.297,543.356 C133.763,563.77 146.675,582.525 162.378,599.273 C192.408,631.303 229.087,651.759 271.75,661.703 C282.732,664.263 282.63,664.301 283.257,676.021 C284.45,698.316 287.16,720.429 292.051,742.225 C297.589,766.907 305.236,790.738 321.342,810.938 C322.547,812.45 322.748,814.27 322.953,816.092 C326.253,835.757 329.564,855.42 332.845,875.089 C333.568,879.423 335.465,882.649 340.258,883.148 C345.14,883.656 348.154,881.307 349.606,876.743 C350.514,874.009 350.704,871.282 350.112,868.407 C349.239,864.173 348.608,859.886 347.946,855.612 C346.736,847.794 345.12,840.03 344.147,831.727 C348.836,833.323 352.877,834.834 357.016,836.048 C367.415,839.097 377.373,838.141 387.01,833.155 C392.037,830.554 397.128,828.063 401.808,824.87 C404.467,823.056 407.142,821.635 410.454,821.38 C413.913,821.114 416.215,818.929 417.677,815.916 C418.854,813.489 420.209,811.237 422.335,809.521 C440.505,794.861 456.631,778.038 473.13,761.606 C478.88,755.879 484.569,750.097 490.28,743.189 C489.471,750.056 488.218,755.892 487.15,761.759 C480.741,796.954 474.493,832.181 465.298,866.797 C464.841,868.516 464.021,870.308 465.248,872.077 C467.727,880.078 473.893,882.993 479.222,878.181 C481.725,875.922 482.937,876.929 484.898,878.183 C499.876,887.756 516.288,892.415 534.044,891.971 C550.314,891.563 564.355,876.331 563.447,860.387 C563.041,853.266 560.444,850.169 553.662,848.547 C549.188,847.478 544.627,847.636 539.408,847.889 C540.375,846.623 540.832,845.977 541.337,845.372 C559.66,823.394 577.864,801.314 596.409,779.525 C600.539,774.673 601.313,770.231 598.866,764.536 C595.657,757.07 592.891,749.415 589.936,741.844 C583.545,727.187 577.151,712.527 570.618,697.546 C581.786,703.306 591.298,700.246 596.675,689.351 C597.84,686.989 598.826,684.431 599.304,681.854 C603.176,660.982 598.707,641.25 590.909,621.985 C588.429,615.859 584.309,611.629 577.716,610.247 C575.273,609.734 573.844,608.437 573.391,606.068 C572.144,599.546 568.375,594.446 563.754,590.07 C561.006,587.469 561.715,586.142 564.007,583.838 C603.642,543.997 622.778,495.1 627.033,439.8 C627.362,435.517 628.712,434.017 632.652,432.996 C650.544,428.361 663.119,417.756 666.53,399.026 C670.031,379.803 666.256,361.523 655.459,345.164" fill="#6E4100"/>
      <path d="M710.126,487.308 C707.589,487.001 708.237,485.032 708.161,483.48 C707.079,461.378 705.867,439.279 703.144,417.31 C698.617,380.781 691.547,344.751 681.284,309.375 C664.612,251.901 640.395,198.011 606.585,148.411 C567.978,91.775 516.438,52.46 451.649,30.538 C428.052,22.554 403.633,16.49 378.72,18.414 C356.375,20.14 334.422,15.024 312.248,17.25 C307.174,18.064 301.99,17.646 296.935,18.621 C281.608,20.687 266.196,22.097 251.005,25.238 C206.046,34.535 165.828,53.619 130.8,83.335 C101.573,108.129 79.121,138.253 61.299,172.074 C39.224,213.966 27.978,258.974 21.858,305.542 C17.872,335.869 17.597,366.405 18.986,396.804 C21.388,449.401 30.99,500.911 45.689,551.508 C61.137,604.685 82.358,655.458 108.064,704.421 C121.373,729.771 136.7,753.662 157.962,773.278 C165.321,780.067 173.278,786.09 181.132,792.251 C183.511,794.021 186.339,795.177 188.341,797.472 C188.671,798.216 189.306,798.178 189.957,798.101 C191.223,798.574 192.403,799.191 193.393,800.132 C210.023,808.823 227.634,813.46 246.484,813.17 C253.514,813.062 256.019,815.218 257.454,822.035 C255.406,828.565 253.497,829.967 246.716,830.019 C210.791,830.3 180.516,816.066 153.517,793.586 C126.957,771.472 108.132,743.499 92.11,713.221 C55.271,643.602 28.236,570.492 12.717,493.223 C2.745,443.571 -1.766,393.4 0.632,342.787 C3.377,284.833 14.062,228.55 39.168,175.732 C68.459,114.112 111.507,65.237 172.675,33.535 C204.295,17.147 238.032,7.503 273.312,3.092 C301.007,-0.37 328.739,-0.507 356.532,1.866 C361.105,2.257 365.78,1.242 370.413,1.147 C413.522,0.263 454.046,10.755 492.863,28.911 C552.836,56.963 597.778,101.214 632.43,156.967 C669.075,215.928 693.278,279.73 708.241,347.266 C713.353,370.341 717.079,393.654 720.032,417.096 C720.332,419.475 720.074,421.54 718.929,423.772 C716.099,429.288 715.442,435.162 717.182,441.218 C718.696,446.488 719.818,451.9 721.727,457.02 C724.66,464.89 724.143,473.055 724.663,481.152 C724.786,483.086 723.902,483.744 722.18,484.15 C718.139,485.104 714.141,486.244 710.126,487.308" fill="#6E4100"/>
      <path d="M665.764,643.017 C670.327,643.243 674.415,645.269 678.669,646.613 C691.669,650.72 704.647,654.907 717.552,659.3 C720.534,660.315 721.516,659.768 722.409,656.771 C726.916,641.634 731.673,626.571 736.344,611.483 C739.746,600.491 745.371,597.542 756.321,601.103 C771.188,605.937 786.09,610.675 800.859,615.791 C804.588,617.083 805.551,616.086 806.57,612.679 C811.238,597.069 816.167,581.537 821.039,565.988 C823.657,557.633 829.682,554.319 838.022,556.982 C858.929,563.659 879.803,570.442 900.646,577.313 C908.024,579.746 911.438,586.548 909.158,593.514 C907.011,600.075 900.252,603.405 892.985,601.101 C877.295,596.128 861.634,591.055 846.038,585.797 C842.584,584.633 841.16,585.095 840.072,588.791 C835.657,603.783 830.91,618.677 826.276,633.605 C822.915,644.431 817.026,647.371 806.105,643.769 C791.257,638.871 776.363,634.112 761.566,629.066 C758.186,627.914 757.145,628.732 756.173,632.027 C751.658,647.336 746.864,662.563 742.12,677.803 C739.073,687.595 733.042,690.701 723.397,687.543 C702.852,680.817 682.307,674.09 661.765,667.355 C656.457,665.615 653.462,661.926 653.032,656.378 C652.622,651.073 654.863,647.019 659.487,644.365 C661.409,643.262 663.524,642.829 665.764,643.017" fill="#FF7164"/>
    </g>
    <path d="M805.145,404.913 C812.357,404.985 817.406,409.282 818.217,415.279 C819.108,421.863 815.638,427.4 808.912,429.288 C794.506,433.334 780.045,437.187 765.586,441.04 C756.352,443.501 756.353,443.432 758.989,452.659 C762.916,466.406 766.838,480.154 770.72,493.914 C773.496,503.757 770.138,509.556 760.288,512.206 C744.874,516.354 729.497,520.64 714.043,524.631 C710.605,525.518 709.972,526.664 711.004,530.1 C715.498,545.068 719.631,560.144 723.946,575.165 C727.12,586.215 724.287,591.635 713.366,594.606 C692.667,600.239 671.929,605.729 651.217,611.316 C645.994,612.725 641.58,611.344 638.192,607.318 C634.929,603.44 634.269,598.881 636.398,594.216 C638.151,590.377 641.228,588.089 645.396,586.987 C661.31,582.778 677.157,578.313 693.099,574.212 C696.47,573.345 697.212,572.27 696.208,568.903 C691.6,553.447 687.235,537.918 682.814,522.406 C680.122,512.96 683.504,506.952 693.049,504.366 C708.457,500.192 723.866,496.02 739.323,492.036 C742.801,491.139 743.709,490.021 742.576,486.274 C737.862,470.673 733.506,454.963 729.132,439.261 C726.769,430.776 730.05,424.747 738.5,422.422 C759.504,416.644 780.557,411.043 801.601,405.413 C803.031,405.03 804.553,404.992 805.145,404.913" fill="#FF7164"/>
    <path d="M349.606,876.743 C348.286,862.156 344.957,847.882 342.85,833.417 C342.661,832.122 342.514,830.821 342.285,829.034 C349.264,832.318 356.027,834.845 363.262,836.012 C372.23,837.459 380.421,835.183 388.23,831.122 C392.645,828.826 396.897,826.206 401.149,823.612 C403.937,821.91 406.384,819.974 410.114,820.178 C413.588,820.368 415.874,817.814 416.934,814.546 C417.682,812.235 418.971,810.471 420.838,808.935 C444.928,789.117 466.579,766.767 487.978,744.157 C489.212,742.854 490.631,741.728 492.456,740.073 C484.372,784.63 477.108,828.819 465.248,872.077 C445.686,872.959 426.082,872.48 406.542,873.334 C392.771,873.935 378.999,873.356 365.276,874.258 C360.061,874.602 354.404,873.359 349.606,876.743" fill="#B9DEFE"/>
    <path d="M731.557,124.272 C748.11,124.307 761.446,136.773 762.339,152.827 C763.418,172.223 742.969,181.689 729.147,178.253 C724.908,177.199 722.566,173.41 723.247,169.12 C723.933,164.792 726.636,162.425 731.001,162.037 C731.987,161.95 732.993,162.096 733.989,162.097 C740.182,162.103 744.716,159.412 745.411,155.332 C746.177,150.838 742.084,143.975 737.391,142.095 C733.546,140.555 729.534,140.75 725.599,141.592 C718.863,143.034 712.671,145.72 707.221,150.05 C702.832,153.537 697.896,153.333 694.786,149.718 C691.518,145.92 692.27,140.847 696.664,137.043 C705.463,129.426 719.614,124.247 731.557,124.272" fill="#6E4100"/>
    <path d="M683.125,39.636 C699.231,39.667 713.038,53.096 712.28,67.995 C711.751,78.392 702.17,89.848 692.069,92.159 C687.466,93.213 683.603,91.246 682.008,87.036 C680.451,82.929 682.129,78.732 686.214,76.531 C686.505,76.374 686.831,76.283 687.129,76.137 C693.838,72.848 696.923,67.922 695.018,63.549 C692.696,58.217 683.529,54.869 677.798,57.528 C668.955,61.631 663.055,68.625 659.044,77.37 C656.635,82.624 652.508,84.755 647.889,82.974 C643.795,81.396 641.933,78.094 642.547,73.86 C644.787,58.407 667.197,39.605 683.125,39.636" fill="#6E4100"/>
    <path d="M619.393,736.009 C644.762,726.175 663.745,709.153 676.576,685.204 C677.854,685.498 679.16,685.702 680.402,686.103 C684.63,687.468 688.834,688.902 693.297,690.393 C678.008,718.599 656.421,739.475 626.646,751.391 C621.771,753.341 617.463,751.994 615.323,748.229 C612.896,743.96 614.28,739.804 619.393,736.009" fill="#6E4100"/>
    <path d="M695.114,639.059 C696.689,629.666 699.573,620.514 700.29,610.962 C706.082,609.221 711.874,607.481 718.276,605.557 C716.664,618.348 714.277,630.271 711.404,642.115 C710.863,644.346 709.816,644.153 708.197,643.578 C703.85,642.032 699.477,640.56 695.114,639.059" fill="#6E4100"/>
    <path d="M181.325,793.047 C154.749,776.147 134.354,753.219 118.811,726.235 C74.389,649.119 43.415,566.916 27.233,479.268 C19.868,439.375 16.071,399.166 16.942,358.604 C18.313,294.756 29.025,232.889 58.122,175.29 C86.79,118.541 128.089,74.042 185.771,45.835 C216.266,30.922 248.578,22.414 282.288,19.029 C286.918,18.564 291.573,18.352 296.217,18.023 C298.28,17.794 300.511,16.476 302.16,18.936 C269.231,24.315 238.693,36.226 210.063,53.109 C164.779,79.813 127.646,115.413 96.641,157.659 C94.414,160.693 94.127,163.3 95.314,166.824 C104.661,194.567 127.147,210.972 156.333,211.094 C162.149,211.118 167.97,211.257 174.431,209.801 C172.681,213.095 170.151,214.358 167.865,215.747 C152.542,225.056 135.71,227.893 118.051,227.384 C100.365,226.874 83.501,222.661 67.111,216.353 C64.112,215.199 62.838,215.504 61.538,218.551 C49.911,245.8 42.479,274.164 38.378,303.466 C34.996,327.634 34.553,351.932 35.508,376.234 C37.061,415.774 43.811,454.576 53.389,492.908 C67.427,549.089 83.123,604.769 104.428,658.711 C119.874,697.817 138.046,735.532 161.887,770.329 C167.584,778.644 174.413,785.854 182.319,792.071 C182.544,792.963 182.378,793.456 181.325,793.047" fill="#FEFEFE"/>
    <path d="M115.155,343.073 C111.079,342.864 108.203,340.882 107.009,336.944 C105.712,332.669 107.502,329.369 111.133,327.236 C119.318,322.427 127.375,317.432 135.166,312.006 C174.403,284.674 207.89,251.227 238.569,214.796 C255.098,195.169 270.632,174.791 284.818,153.394 C288.111,148.425 292.985,147.153 297.204,149.83 C301.288,152.422 302.131,157.634 298.874,162.586 C283.849,185.428 267.306,207.147 249.621,227.975 C221.744,260.809 191.47,291.188 156.912,317.086 C145.311,325.78 133.29,333.849 120.744,341.125 C119.017,342.127 117.327,343.257 115.155,343.073" fill="#6E4100"/>
    <path d="M302.16,18.936 C300.354,17.496 298.13,18.767 296.217,18.023 C301.507,16.65 306.884,17.094 312.248,17.25 C309.031,18.68 305.533,18.432 302.16,18.936" fill="#EAE0C7"/>
    <path d="M181.325,793.047 C181.657,792.722 181.988,792.397 182.319,792.071 C184.49,793.688 187.54,794.325 188.34,797.472 C185.858,796.227 183.347,795.024 181.325,793.047" fill="#E9E1CC"/>
    <path d="M193.393,800.132 C192.058,799.775 190.738,799.393 189.957,798.101 C191.555,798.012 193.057,798.085 193.393,800.132" fill="#DACDB0"/>
    <path d="M605.49,471.247 C600.794,496.034 591.381,518.934 577.807,540.145 C569.075,553.789 558.7,566.064 546.537,577.207 C544.072,572.748 539.954,572.024 535.494,571.524 C521.497,569.955 510.039,574.031 501.215,585.416 C491.436,598.034 481.233,610.323 471.351,622.863 C469.981,624.603 468.271,625.293 466.447,625.989 C427.148,640.99 386.553,649.644 344.457,651.238 C307.747,652.628 272.133,647.841 238.271,632.966 C203.034,617.487 175.35,592.983 153.622,561.473 C153.347,561.075 153.252,560.553 153.073,560.089 C158.009,559.18 162.399,561.853 167.169,562.219 C176.659,562.947 186.039,563.288 195.414,560.85 C214.576,555.868 224.089,541.467 231.205,524.708 C238.135,508.387 235.223,493.058 225.795,478.668 C215.978,463.683 203.502,452.174 184.983,449.223 C169.273,446.719 155.717,451.647 143.984,461.892 C135.009,469.728 128.899,479.531 125.234,490.9 C124.523,493.108 124.629,496.018 121.66,496.988 C111.944,469.164 105.669,440.701 105.926,411.06 C105.96,407.112 103.89,402.463 106.467,399.394 C108.821,396.59 113.585,397.472 117.263,396.647 C153.385,388.547 187.008,373.934 219.769,357.17 C258.806,337.195 296.318,314.797 329.551,285.873 C370.726,250.037 403.909,207.997 427.533,158.653 C429.429,154.694 431.238,154.096 435.305,155.447 C495.426,175.429 539.144,214.872 570.252,269.162 C588.986,301.856 603.039,336.324 607.937,374.027 C608.58,378.972 608.966,383.951 609.471,388.914 C609.904,391.956 608.329,391.699 606.879,390.203 C604.201,387.44 601.286,384.951 598.28,382.612 C581.017,369.179 562.198,364.515 541.345,373.327 C532.345,377.13 525.493,383.812 520.202,391.814 C512.258,403.828 509.121,417.639 508.953,431.692 C508.764,447.605 517.252,459.783 529.411,469.414 C537.406,475.747 545.783,481.365 556.331,482.787 C570.169,484.652 582.657,480.887 594.555,474.284 C597.32,472.75 599.894,470.877 602.72,469.462 C604.37,468.637 606.166,468.181 605.49,471.247" fill="#FEF8EA"/>
    <path d="M306.836,667.108 C318.088,668.452 330.416,668.351 342.738,668.048 C345.23,667.987 346.194,668.894 346.997,671.058 C353.298,688.037 359.691,704.982 366.108,721.918 C366.812,723.778 366.661,725.075 365.396,726.819 C362.379,730.977 362.99,735.568 366.432,738.459 C369.908,741.378 374.831,741.027 378.475,737.242 C401.575,713.25 424.616,689.201 447.67,665.165 C451.933,660.72 456.224,656.299 460.391,651.766 C462.099,649.908 463.106,649.177 465.379,651.515 C478.847,665.374 492.527,679.027 506.174,692.711 C507.789,694.331 509.144,695.422 506.947,697.909 C475.838,733.128 444.208,767.827 407.828,797.803 C399.735,804.472 391.102,810.368 381.935,815.577 C372.959,820.679 364.271,820.23 355.233,816.36 C339.192,809.494 329.9,796.235 322.608,781.349 C312.548,760.814 307.801,738.698 304.315,716.273 C302.114,702.117 300.805,687.868 299.788,673.582 C299.295,666.639 299.144,666.65 306.836,667.108" fill="#B9DEFE"/>
    <path d="M121.66,496.988 C125.196,487.144 128.902,477.498 135.309,468.924 C153.224,444.947 185.86,440.306 209.488,458.609 C220.019,466.766 227.668,477.089 232.814,489.19 C239.902,505.856 235.516,521.373 227.18,536.324 C218.736,551.468 206.446,561.434 188.931,563.56 C176.821,565.03 164.709,564.497 153.073,560.089 C140.246,542.288 131.188,522.556 123.427,502.162 C122.779,500.46 122.246,498.714 121.66,496.988" fill="#FFD5BA"/>
    <path d="M605.49,471.247 C604.274,467.705 602.69,470.911 601.97,471.369 C595.071,475.763 587.962,479.614 580.085,482.022 C564.613,486.751 550.048,485.447 536.452,476.156 C523.555,467.343 512.174,457.272 508.874,441.087 C504.461,419.438 513.797,386.318 537.781,373.489 C551.881,365.947 566.631,365.771 581.513,371.275 C591.675,375.033 600.159,381.27 607.345,389.285 C608.621,390.709 609.01,390.478 609.471,388.913 C611.15,400.908 611.483,412.989 611.057,425.048 C610.508,440.583 609.399,456.096 605.49,471.247" fill="#FFD5BA"/>
    <path d="M544.066,684.034 C545.319,683.747 545.526,685.235 545.988,686.164 C559.096,712.514 571.193,739.313 581.721,766.81 C582.49,768.82 582.207,770.177 580.877,771.764 C564.299,791.552 547.736,811.355 531.279,831.244 C529.501,833.392 528.432,833.155 526.554,831.514 C521.036,826.692 515.508,821.856 509.68,817.427 C507.099,815.465 507.491,814.054 508.792,811.701 C516.84,797.15 524.704,782.498 532.753,767.947 C535.213,763.499 535.082,759.592 531.915,755.505 C524.368,745.765 517.107,735.801 509.494,726.114 C507.502,723.579 507.759,722.194 509.852,719.948 C515.185,714.225 520.144,708.155 525.356,702.317 C527.717,699.672 529.186,696.764 528.33,693.242 C527.76,690.897 528.618,690.032 530.667,689.295 C535.042,687.722 539.331,685.911 544.066,684.034" fill="#B9DEFE"/>
    <path d="M584.133,669.075 C583.963,672.145 583.776,676.307 582.297,680.258 C581.917,681.273 581.806,682.721 580.435,682.88 C579.292,683.013 578.815,681.827 578.342,681.002 C575.366,675.811 572.258,670.724 573.701,664.202 C574.426,660.928 573.302,657.884 570.341,655.912 C566.873,653.603 563.45,654.09 560.07,656.256 C546.987,664.64 532.921,670.922 518.242,675.932 C515.425,676.894 513.515,676.634 511.318,674.326 C501.792,664.321 492.093,654.478 482.309,644.724 C480.323,642.745 479.899,641.205 481.276,638.711 C483.539,634.611 486.086,630.724 489.08,627.153 C497.951,616.571 506.893,606.049 515.214,595.018 C517.793,591.6 521.052,589.032 525.402,588.346 C529.034,587.773 532.411,587.039 533.047,592.807 C533.515,597.045 537.384,599.18 541.613,598.816 C550.353,598.064 555.567,603.99 557.448,611.589 C559.229,618.786 563.484,623.799 570.791,625.627 C573.942,626.415 575.395,628.245 576.56,631.069 C580.659,641.002 584.124,657.31 584.133,669.075" fill="#FEF8EA"/>
    <path d="M651.124,387.113 C651.082,401.646 644.403,411.434 632.096,415.802 C629.231,416.82 627.76,416.997 627.729,412.992 C627.572,393.147 625.561,373.463 621.334,354.061 C620.464,350.069 621.921,348.742 625.426,348.156 C632.771,346.929 638.536,349.439 642.741,356.258 C648.676,365.882 650.289,376.719 651.124,387.113" fill="#FEF8EA"/>
    <path d="M76.887,481.242 C76.889,467.979 80.959,461.747 89.884,459.45 C92.699,458.725 93.873,459.105 94.556,462.351 C98.696,482.024 104.408,501.249 112.359,519.739 C114.014,523.588 112.873,524.047 109.278,524.13 C97.081,524.411 88.674,518.738 83.424,508.1 C79.024,499.186 77.143,489.618 76.887,481.242" fill="#FEF8EA"/>
    <path d="M546.297,864.158 C544.149,870.568 539.177,874.95 533.611,875.106 C518.177,875.537 504.133,871.222 491.484,862.323 C487.642,859.619 486.161,856.483 487.752,851.697 C489.265,847.15 489.96,842.332 491.049,837.641 C491.308,836.522 491.542,835.351 492.064,834.347 C495.052,828.604 496.545,828.31 501.377,832.366 C505.71,836.003 509.813,839.974 514.445,843.179 C518.903,846.264 520.678,850.256 520.746,855.371 C520.761,856.536 520.834,857.7 520.821,858.864 C520.774,863.25 520.619,867.697 525.36,870.116 C530.03,872.499 533.601,870.373 536.983,867.248 C539.425,864.992 542.549,864.537 546.297,864.158" fill="#FEFEFE"/>
    <path d="M366.78,676.271 C368.138,675.717 368.65,676.706 369.257,677.45 C375.635,685.266 380.065,694.584 387.754,701.391 C388.96,702.458 387.822,703.167 387.18,703.782 C384.812,706.05 382.382,708.253 379.804,710.638 C375.486,699.245 371.167,687.849 366.78,676.271" fill="#FDFDFC"/>
    <path d="M381.164,665.074 C388.901,663.842 395.877,662.731 403.755,661.477 C399.765,667.161 396.232,672.083 392.834,677.096 C391.515,679.041 390.648,678.462 389.591,676.955 C386.94,673.173 384.25,669.419 381.164,665.074" fill="#FDFDFD"/>
    <path d="M412.777,659.563 C420.287,657.768 426.683,656.238 434.599,654.345 C429.392,659.84 425.233,664.229 421.005,668.689 C418.052,666.028 417.149,661.973 412.777,659.563" fill="#FBFAFA"/>
    <path d="M515.306,761.914 C512.002,762.594 508.698,763.275 505.395,763.955 C506.036,760.137 506.676,756.321 507.527,751.255 C510.571,755.426 512.939,758.67 515.306,761.914" fill="#DABE5C"/>
    <path d="M449.782,365.729 C449.853,360.542 450.356,355.35 452.564,350.65 C453.967,347.662 453.26,345.783 451.247,343.634 C448.628,340.839 446.523,337.621 444.89,334.153 C443.306,330.791 443.356,327.381 446.983,325.552 C450.577,323.74 453.697,324.808 455.641,328.679 C456.604,330.596 457.955,332.316 459.103,334.142 C460.793,336.831 462.666,338.319 466.367,337.716 C471.068,336.949 475.184,339.342 478.402,342.637 C488.442,352.919 492.783,365.289 490.186,379.491 C487.532,394.006 472.676,399.347 461.26,390.072 C453.623,383.868 449.658,375.709 449.782,365.729" fill="#6E4100"/>
    <path d="M250.646,415.192 C240.772,411.929 231.52,410.363 222.213,409.063 C219.089,408.627 215.935,408.407 212.803,408.021 C208.844,407.533 206.18,405.611 206.391,401.28 C206.602,396.967 209.381,394.93 213.396,395.294 C233.657,397.13 253.511,400.741 272.089,409.566 C274.962,410.931 276.558,413.075 276.24,416.249 C275.945,419.189 274.05,420.936 271.298,421.902 C255.499,427.449 239.715,433.033 223.92,438.59 C222.36,439.139 220.79,439.699 219.183,440.07 C214.654,441.115 211.371,439.48 210.413,435.809 C209.429,432.037 211.399,429.144 215.73,427.638 C226.538,423.879 237.318,420.039 248.108,416.226 C248.654,416.033 249.183,415.79 250.646,415.192" fill="#6E4100"/>
    <path d="M390.747,520.287 C409.967,520.674 422.156,525.092 431.995,535.135 C435.922,539.143 436.383,543.089 433.425,546.013 C430.398,549.004 426.726,548.424 422.729,544.322 C404.283,525.395 368.505,532.36 357.625,557.011 C356.89,558.677 356.543,560.579 355.109,561.816 C352.549,564.024 349.617,564.302 346.835,562.452 C343.703,560.368 343.563,557.191 344.773,553.997 C348.28,544.737 354.156,537.228 362.093,531.35 C371.568,524.334 384.263,520.255 390.747,520.287" fill="#6E4100"/>
    <path d="M448.917,236.633 C438.702,236.529 429.825,233.886 422.312,227.452 C418.482,224.172 417.767,220.425 420.245,217.575 C422.838,214.592 425.942,214.87 430.156,218.231 C438.305,224.728 447.439,226.288 457.243,222.94 C461.249,221.572 464.334,222.226 465.861,226.095 C467.426,230.063 465.249,232.671 461.577,234.3 C457.379,236.163 452.928,236.395 448.917,236.633" fill="#6E4100"/>
    <path d="M369.198,409.702 C369.161,413.916 367.616,416.324 364.832,417.929 C361.984,419.571 358.904,419.583 356.378,417.649 C353.504,415.449 350.824,412.879 348.507,410.097 C345.527,406.521 345.991,401.933 349.14,398.862 C352.153,395.923 357.247,395.475 360.426,398.551 C364,402.01 368.913,404.695 369.198,409.702" fill="#6E4300"/>
  </g>
</svg>
